<svg id="backet" data-name="Слой 1" xmlns="http://www.w3.org/2000/svg" xmlns:xlink="http://www.w3.org/1999/xlink" viewBox="0 0 40 40"><defs><style>.cls-1{fill:none;}.cls-2{clip-path:url(#clip-path);}</style><clipPath id="clip-path"><rect class="cls-1" width="40" height="40"/></clipPath></defs><g class="cls-2"><path d="M36.56,12.16h-2.3L27,.67a.66.66,0,0,0-1-.2.66.66,0,0,0-.2.94l6.83,10.75H7.36L14.19,1.41A.66.66,0,0,0,14,.47a.65.65,0,0,0-.94.2L5.81,12.16H3.51a3.72,3.72,0,1,0,0,7.43H36.56a3.71,3.71,0,0,0,3.72-3.71A3.75,3.75,0,0,0,36.56,12.16Zm0,6.15H3.44a2.35,2.35,0,0,1-2.36-2.37,2.39,2.39,0,0,1,2.36-2.36H36.49a2.37,2.37,0,0,1,.07,4.73Zm-25.82,16a.65.65,0,0,1-.68-.68v-9a.68.68,0,0,1,1.36,0v9A.7.7,0,0,1,10.74,34.33Zm9.26,0a.64.64,0,0,1-.68-.68v-9a.68.68,0,0,1,1.36,0v9A.7.7,0,0,1,20,34.33Zm9.26,0a.64.64,0,0,1-.68-.68v-9a.68.68,0,1,1,1.35,0v9A.74.74,0,0,1,29.26,34.33ZM36.56,21h.13L35.27,39.06a.66.66,0,0,1-.67.61H5.54a.67.67,0,0,1-.68-.61L3.44,21H4.79L6.14,38.32H33.92L35.27,21Z"/></g></svg>