<svg width="27" height="27" viewBox="0 0 27 27" fill="none" xmlns="http://www.w3.org/2000/svg">
<g clip-path="url(#clip0)">
<path d="M13.5003 1.3501C8.93728 1.3501 5.23828 5.0491 5.23828 9.6121C5.23828 12.4201 6.75028 14.7961 8.85628 18.1171C10.1523 20.1421 11.5833 22.4371 13.0683 25.3801C13.1493 25.5421 13.3113 25.6501 13.5003 25.6501C13.6893 25.6501 13.8513 25.5421 13.9323 25.3801C15.4173 22.4371 16.8753 20.1421 18.1443 18.1171C20.2503 14.7961 21.7623 12.4201 21.7623 9.6121C21.7623 5.0491 18.0633 1.3501 13.5003 1.3501ZM17.3343 17.5771C16.1463 19.4401 14.8503 21.5191 13.5003 24.0841C12.1503 21.4921 10.8543 19.4131 9.66628 17.5771C7.66828 14.4181 6.21028 12.1231 6.21028 9.6121C6.21028 5.5891 9.47728 2.3221 13.5003 2.3221C17.5233 2.3221 20.7903 5.5891 20.7903 9.6121C20.7903 12.1231 19.3323 14.4181 17.3343 17.5771Z" fill="black"/>
<path d="M13.5005 5.23828C11.0975 5.23828 9.12646 7.20928 9.12646 9.61228C9.12646 12.0153 11.0975 13.9863 13.5005 13.9863C15.9035 13.9863 17.8745 12.0153 17.8745 9.61228C17.8745 7.20928 15.9035 5.23828 13.5005 5.23828ZM13.5005 13.0143C11.6375 13.0143 10.0985 11.4753 10.0985 9.61228C10.0985 7.74928 11.6375 6.21028 13.5005 6.21028C15.3635 6.21028 16.9025 7.74928 16.9025 9.61228C16.9025 11.4753 15.3635 13.0143 13.5005 13.0143Z" fill="black"/>
</g>
<defs>
<clipPath id="clip0">
<rect width="27" height="27" fill="white"/>
</clipPath>
</defs>
</svg>
