<svg width="27" height="27" viewBox="0 0 27 27" fill="none" xmlns="http://www.w3.org/2000/svg">
<g clip-path="url(#clip0)">
<path d="M27 4.899C27 4.72182 26.9296 4.5519 26.8043 4.42662C26.6791 4.30134 26.5091 4.23096 26.332 4.23096H0.668041C0.490866 4.23096 0.320947 4.30134 0.195665 4.42662C0.0703827 4.5519 0 4.72182 0 4.899V22.2124C0 22.3896 0.0703827 22.5595 0.195665 22.6848C0.320947 22.8101 0.490866 22.8804 0.668041 22.8804H26.332C26.5091 22.8804 26.6791 22.8101 26.8043 22.6848C26.9296 22.5595 27 22.3896 27 22.2124V4.899ZM13.4725 15.6438L2.40846 5.56704H24.5512L13.4725 15.6438ZM8.1761 12.6188L1.33608 20.4693V6.38906L8.1761 12.6188ZM9.13836 13.5262L13.0224 17.0599C13.1458 17.1712 13.3063 17.2326 13.4725 17.2321C13.6387 17.2316 13.7988 17.1693 13.9216 17.0573L17.7747 13.5597L24.806 21.6H2.11029L9.13836 13.5262ZM18.7375 12.6526L25.6082 6.40326V20.5024L18.7375 12.6526Z" fill="black"/>
</g>
<defs>
<clipPath id="clip0">
<rect width="27" height="27" fill="white"/>
</clipPath>
</defs>
</svg>
