<svg width="28" height="27" viewBox="0 0 28 27" fill="none" xmlns="http://www.w3.org/2000/svg">
<g clip-path="url(#clip0)">
<path d="M17.9773 2.0813H10.023C8.196 2.0813 6.7085 3.57804 6.7085 5.41639V22.7586C6.7085 24.597 8.196 26.0937 10.023 26.0937H17.9773C19.8043 26.0937 21.2918 24.597 21.2918 22.7586V5.41639C21.2918 3.57686 19.8043 2.0813 17.9773 2.0813ZM19.9665 22.7574C19.9665 23.8609 19.074 24.759 17.9773 24.759H10.023C8.92633 24.759 8.03383 23.8609 8.03383 22.7574V5.41639C8.03383 4.31291 8.92633 3.41486 10.023 3.41486H17.9773C19.074 3.41486 19.9665 4.31291 19.9665 5.41639V22.7574Z" fill="black"/>
<path d="M14.0001 24.091C14.7321 24.091 15.3255 23.4939 15.3255 22.7574C15.3255 22.0209 14.7321 21.4238 14.0001 21.4238C13.2682 21.4238 12.6748 22.0209 12.6748 22.7574C12.6748 23.4939 13.2682 24.091 14.0001 24.091Z" fill="black"/>
<path d="M15.3252 4.08154H12.6734C12.3071 4.08154 12.0107 4.37972 12.0107 4.74833C12.0107 5.11693 12.3071 5.41511 12.6734 5.41511H15.3252C15.6916 5.41511 15.9879 5.11693 15.9879 4.74833C15.9879 4.37972 15.6916 4.08154 15.3252 4.08154Z" fill="black"/>
</g>
<defs>
<clipPath id="clip0">
<rect width="28" height="27" fill="white"/>
</clipPath>
</defs>
</svg>
