<svg width="19" height="19" viewBox="0 0 19 19" fill="none" xmlns="http://www.w3.org/2000/svg">
<g clip-path="url(#clip0)">
<path d="M9.50007 2.44287C9.20025 2.44287 8.95721 2.68592 8.95721 2.98573V8.68573H3.25721C2.95739 8.68573 2.71436 8.92877 2.71436 9.22859C2.71436 9.52841 2.95739 9.77144 3.25721 9.77144H8.95721V15.4714C8.95721 15.7713 9.20025 16.0143 9.50007 16.0143C9.79989 16.0143 10.0429 15.7713 10.0429 15.4714V9.77144H15.7429C16.0427 9.77144 16.2858 9.52841 16.2858 9.22859C16.2858 8.92877 16.0427 8.68573 15.7429 8.68573H10.0429V2.98573C10.0429 2.68592 9.79989 2.44287 9.50007 2.44287Z" fill="#454545"/>
</g>
<defs>
<clipPath id="clip0">
<rect width="19" height="19" fill="white"/>
</clipPath>
</defs>
</svg>
