<svg width="15" height="14" viewBox="0 0 15 14" fill="none" xmlns="http://www.w3.org/2000/svg">
<g clip-path="url(#clip0)">
<path d="M6.65476 1.32053C6.82907 1.32053 7.00339 1.3275 7.17771 1.34423C7.22019 1.34841 7.26413 1.3526 7.30661 1.35678C7.32858 1.35957 7.34909 1.36236 7.37107 1.36375C7.42233 1.36933 7.30075 1.35399 7.38278 1.36515C7.46774 1.3777 7.55124 1.39025 7.63474 1.40559C7.96433 1.46555 8.28952 1.55479 8.60153 1.67192C8.63962 1.68586 8.67917 1.7012 8.71726 1.71654C8.66159 1.69423 8.71286 1.71515 8.72751 1.72072C8.74655 1.72909 8.7656 1.73606 8.78464 1.74443C8.85935 1.7765 8.93405 1.80997 9.00876 1.84622C9.14939 1.91455 9.28708 1.98706 9.42185 2.06654C9.54196 2.13766 9.65915 2.21156 9.77341 2.29104C9.80124 2.31057 9.83054 2.33009 9.85837 2.351C9.87009 2.35937 9.88181 2.36634 9.89206 2.37471C9.832 2.32869 9.88767 2.37192 9.89938 2.38029C9.95505 2.42212 10.0092 2.46395 10.062 2.50857C10.2759 2.68288 10.4751 2.87252 10.6596 3.07471C10.705 3.12491 10.7505 3.1765 10.7944 3.22949C10.8032 3.24065 10.812 3.25041 10.8208 3.26156C10.8647 3.31316 10.7929 3.2267 10.8208 3.26017C10.8442 3.28945 10.8676 3.31873 10.8911 3.34802C10.9746 3.45678 11.0537 3.56694 11.1284 3.68128C11.2031 3.79563 11.2734 3.91276 11.3393 4.03268C11.3716 4.09264 11.4038 4.1526 11.4345 4.21395C11.4477 4.24184 11.4624 4.26973 11.4756 4.29762C11.4902 4.32829 11.5005 4.37431 11.5224 4.4008C11.4873 4.35758 11.5122 4.37571 11.5224 4.39941C11.5298 4.41475 11.5356 4.43148 11.5429 4.44682C11.5561 4.47889 11.5693 4.50957 11.5825 4.54164C11.6074 4.60578 11.6323 4.66993 11.6543 4.73407C11.6997 4.86515 11.7407 4.99622 11.7744 5.13009C11.8095 5.26535 11.8388 5.40061 11.8623 5.53865C11.8681 5.57351 11.874 5.60837 11.8799 5.64184C11.8813 5.65579 11.8842 5.66973 11.8857 5.68367C11.8769 5.60698 11.8842 5.67949 11.8872 5.69343C11.896 5.76316 11.9033 5.83427 11.9092 5.90399C11.9326 6.18985 11.9326 6.4771 11.9092 6.76156C11.9033 6.82849 11.896 6.89543 11.8886 6.96236C11.8872 6.97909 11.8857 6.99722 11.8813 7.01535C11.8945 6.9512 11.8857 6.98885 11.8828 7.00419C11.8769 7.04602 11.8696 7.08786 11.8623 7.1283C11.8388 7.26495 11.8095 7.4016 11.7744 7.53686C11.7392 7.67073 11.6997 7.8018 11.6543 7.93288C11.6323 7.99423 11.6103 8.05559 11.5854 8.11694C11.5737 8.14622 11.562 8.17411 11.5503 8.20339C11.5429 8.22292 11.5342 8.24104 11.5268 8.26057C11.5239 8.26754 11.521 8.27312 11.518 8.28009C11.5049 8.30798 11.5078 8.30519 11.5224 8.27033C11.4843 8.31634 11.4653 8.39443 11.4389 8.44602C11.4067 8.51017 11.3745 8.57431 11.3393 8.63706C11.2734 8.75698 11.2031 8.87411 11.1284 8.98845C11.0537 9.1028 10.9746 9.21435 10.8911 9.32172C10.8706 9.34822 10.8486 9.3761 10.8281 9.4026C10.8193 9.41375 10.7973 9.44583 10.8354 9.39423C10.8252 9.40818 10.8134 9.42073 10.8032 9.43328C10.7578 9.48766 10.7094 9.54204 10.6611 9.59503C10.478 9.79722 10.2773 9.98686 10.0634 10.1612C10.0122 10.203 9.96091 10.2434 9.90817 10.2825C9.89499 10.2922 9.88181 10.3048 9.86716 10.3132C9.92136 10.2769 9.88767 10.2978 9.87595 10.3062C9.84226 10.3299 9.80856 10.355 9.77487 10.3787C9.66061 10.4582 9.54343 10.5321 9.42331 10.6032C9.28854 10.6827 9.15085 10.7552 9.01022 10.8235C8.93991 10.857 8.8696 10.8891 8.79782 10.9197C8.76413 10.9337 8.72897 10.949 8.69528 10.963C8.75827 10.9365 8.6821 10.9685 8.67331 10.9713C8.64987 10.9797 8.62644 10.9895 8.60446 10.9978C8.29099 11.1149 7.96726 11.2042 7.63767 11.2642C7.56296 11.2781 7.48679 11.2906 7.41062 11.3018C7.40183 11.3032 7.31687 11.3144 7.38718 11.306C7.3696 11.3088 7.35349 11.3102 7.33591 11.3116C7.28464 11.3171 7.23337 11.3227 7.1821 11.3269C7.00778 11.3422 6.83347 11.3506 6.65915 11.3506C6.52292 11.3506 6.38523 11.3464 6.24899 11.3367C6.18894 11.3325 6.12741 11.3269 6.06735 11.3213C6.03366 11.3185 5.99997 11.3144 5.96628 11.3102C5.96042 11.3088 5.8945 11.299 5.94577 11.3074C5.99704 11.3157 5.91355 11.3032 5.90476 11.3018C5.64255 11.2642 5.38327 11.2084 5.12985 11.1359C5.00534 11.0996 4.88083 11.0592 4.75925 11.0159C4.70944 10.9978 4.6406 10.9825 4.59665 10.9546C4.65671 10.9936 4.61716 10.963 4.59519 10.9532C4.58347 10.9476 4.57175 10.9434 4.56003 10.9379C4.52487 10.9225 4.48972 10.9072 4.45456 10.8918C4.22165 10.7873 3.9946 10.6687 3.77927 10.5349C3.67233 10.4679 3.56687 10.3982 3.46433 10.3243C3.45554 10.3187 3.43942 10.3104 3.43357 10.302C3.47019 10.3466 3.4614 10.3229 3.43942 10.3062C3.41745 10.2895 3.39401 10.2727 3.37204 10.2546C3.31931 10.2142 3.26804 10.1737 3.21823 10.1305C3.02487 9.97013 2.8447 9.79722 2.67624 9.61455C2.63669 9.57132 2.59714 9.5267 2.55905 9.48208C2.53855 9.45837 2.5195 9.43467 2.499 9.41096C2.49167 9.4026 2.48142 9.39144 2.47556 9.38168C2.51657 9.44722 2.48142 9.38865 2.46823 9.37332C2.3906 9.27571 2.31735 9.17531 2.24851 9.07351C2.10788 8.86714 1.98337 8.6524 1.87351 8.43069C1.85007 8.38188 1.81052 8.32331 1.7988 8.27033C1.81198 8.33168 1.81052 8.29822 1.80173 8.2773C1.79587 8.26335 1.79001 8.24802 1.78269 8.23407C1.7695 8.202 1.75632 8.17132 1.74314 8.13925C1.69626 8.02351 1.65525 7.90499 1.61716 7.78507C1.54099 7.54383 1.48386 7.29702 1.44431 7.04742C1.44138 7.03347 1.43552 7.01395 1.43698 7.00001C1.43112 7.05021 1.44284 7.04184 1.43991 7.01674C1.43552 6.98467 1.43112 6.9526 1.42819 6.92192C1.42087 6.85499 1.41355 6.78666 1.40915 6.71973C1.3989 6.59005 1.3945 6.45897 1.3945 6.32929C1.3945 6.19961 1.40036 6.06853 1.41062 5.93885C1.41501 5.8775 1.42087 5.81754 1.42819 5.75618C1.43259 5.72411 1.43552 5.69204 1.43991 5.66136C1.44284 5.63626 1.43112 5.6279 1.43698 5.6781C1.43552 5.66136 1.44284 5.63905 1.44577 5.62092C1.48532 5.37132 1.54392 5.12451 1.62009 4.88328C1.65817 4.76475 1.70066 4.64622 1.74607 4.53049C1.75778 4.5012 1.7695 4.47331 1.78122 4.44403C1.78708 4.43009 1.79294 4.41475 1.80026 4.4008C1.80905 4.37849 1.81052 4.34642 1.79733 4.40778C1.80905 4.352 1.85153 4.29065 1.87644 4.23905C1.9863 4.01734 2.11081 3.8012 2.25144 3.59622C2.32175 3.49443 2.39499 3.39403 2.47263 3.29642C2.48435 3.28248 2.51364 3.23088 2.47409 3.29503C2.47995 3.28527 2.49021 3.27551 2.49753 3.26574C2.51804 3.24204 2.53708 3.21833 2.55759 3.19463C2.5986 3.14722 2.63962 3.1012 2.6821 3.05519C2.85056 2.87252 3.0322 2.69961 3.22556 2.53925C3.2739 2.49881 3.32224 2.45977 3.37204 2.42212C3.39694 2.4026 3.42185 2.38447 3.44675 2.36495C3.46579 2.351 3.46579 2.33567 3.43357 2.37471C3.44528 2.36216 3.46579 2.3524 3.47898 2.34124C3.58151 2.26734 3.68698 2.19762 3.79538 2.13208C4.01218 1.99821 4.23776 1.87969 4.47214 1.7765C4.50144 1.76395 4.53073 1.7514 4.56003 1.73885C4.57175 1.73327 4.58347 1.72909 4.59519 1.72351C4.61716 1.71515 4.65671 1.68308 4.59665 1.72212C4.64646 1.69005 4.72116 1.67331 4.77829 1.65379C4.90134 1.60917 5.02439 1.57013 5.15036 1.53527C5.40378 1.46276 5.66452 1.40837 5.92673 1.37212C5.93259 1.37072 5.99851 1.36096 5.94724 1.36933C5.89597 1.3777 5.96188 1.36794 5.96774 1.36654C6.00144 1.36236 6.03513 1.35957 6.06882 1.35539C6.12888 1.34981 6.1904 1.34423 6.25046 1.34005C6.38083 1.32471 6.51706 1.32053 6.65476 1.32053C6.80856 1.32053 6.95505 1.19224 6.94772 1.04164C6.9404 0.891043 6.81882 0.762756 6.65476 0.762756C5.52683 0.764151 4.40476 1.07511 3.45993 1.66495C2.54733 2.23527 1.79733 3.04682 1.34323 3.99363C0.856905 5.00459 0.698702 6.12152 0.877413 7.22033C1.04587 8.26614 1.54978 9.252 2.28659 10.0412C3.01316 10.8207 3.97556 11.3966 5.02732 11.6867C6.2739 12.0311 7.65085 11.9697 8.85056 11.4984C10.0107 11.0438 10.998 10.2532 11.6543 9.23387C12.3003 8.2271 12.5976 7.01814 12.4834 5.84264C12.3691 4.66435 11.8696 3.55021 11.0508 2.65917C10.1997 1.73188 9.01169 1.08208 7.73874 0.860366C7.38132 0.797617 7.01804 0.764151 6.65329 0.764151C6.49948 0.764151 6.353 0.892438 6.36032 1.04304C6.36911 1.19363 6.49069 1.32053 6.65476 1.32053Z" fill="black"/>
<path d="M10.3785 10.2741C10.7534 10.6311 11.1284 10.9881 11.5034 11.345C12.0982 11.9112 12.6944 12.4787 13.2891 13.0448C13.4253 13.1745 13.5616 13.3042 13.6978 13.4339C13.8062 13.5371 14.0054 13.5454 14.1123 13.4339C14.2193 13.3223 14.2281 13.1494 14.1123 13.0393C13.7373 12.6823 13.3623 12.3253 12.9873 11.9684C12.3926 11.4022 11.7964 10.8347 11.2017 10.2686C11.0655 10.1389 10.9292 10.0092 10.793 9.87951C10.6846 9.77632 10.4854 9.76795 10.3785 9.87951C10.2715 9.99106 10.2627 10.164 10.3785 10.2741Z" fill="black"/>
</g>
<defs>
<clipPath id="clip0">
<rect width="15" height="14" fill="white"/>
</clipPath>
</defs>
</svg>
